<?xml version="1.0" encoding="UTF-8"?>
<svg version="1.1" xmlns="http://www.w3.org/2000/svg" width="1049" height="323">
<path d="M0 0 C346.17 0 692.34 0 1049 0 C1049 106.59 1049 213.18 1049 323 C702.83 323 356.66 323 0 323 C0 216.41 0 109.82 0 0 Z " fill="#020203" transform="translate(0,0)"/>
<path d="M0 0 C6.5131251 3.53136463 13.06346809 6.82236534 19.875 9.75 C16.34316422 12.10455719 12.78612629 13.0579919 8.75 14.1875 C7.2145089 14.62774003 5.67934898 15.06913687 4.14453125 15.51171875 C3.40799316 15.7236084 2.67145508 15.93549805 1.91259766 16.15380859 C-4.7527321 18.06829404 -4.7527321 18.06829404 -11.125 20.75 C6.365 20.75 23.855 20.75 41.875 20.75 C40.555 21.41 39.235 22.07 37.875 22.75 C30.24471037 26.68089188 30.24471037 26.68089188 25.875 33.75 C30.495 33.75 35.115 33.75 39.875 33.75 C40.535 32.43 41.195 31.11 41.875 29.75 C43.53125 28.15234375 43.53125 28.15234375 45.375 26.6875 C47.81164912 24.74127814 49.09762121 23.41606818 50.875 20.75 C53.48876953 20.40942383 53.48876953 20.40942383 56.7578125 20.45703125 C57.92441406 20.46669922 59.09101563 20.47636719 60.29296875 20.48632812 C61.51628906 20.51146484 62.73960937 20.53660156 64 20.5625 C65.84658203 20.58280273 65.84658203 20.58280273 67.73046875 20.60351562 C70.77907843 20.63896457 73.826825 20.68837921 76.875 20.75 C75.68994873 21.68730957 75.68994873 21.68730957 74.48095703 22.64355469 C72.37593557 24.34508412 70.57849083 26.02163287 68.75 28 C65.875 30.75 65.875 30.75 62.875 30.75 C62.875 31.41 62.875 32.07 62.875 32.75 C68.815 32.42 74.755 32.09 80.875 31.75 C80.875 31.09 80.875 30.43 80.875 29.75 C82.30459074 28.83097738 83.73731195 27.91648784 85.18478394 27.02589417 C87.0823924 25.59344561 88.16768898 24.07906464 89.54345703 22.14819336 C91.25166968 20.1185798 92.28806273 18.9347217 94.83441162 18.1333313 C97.10511326 17.94250861 99.27849579 17.96075295 101.5546875 18.06640625 C102.36745148 18.07631088 103.18021545 18.08621552 104.01760864 18.09642029 C106.59695993 18.13540453 109.17195034 18.22317833 111.75 18.3125 C113.50514657 18.34763531 115.26036031 18.37957045 117.015625 18.40820312 C121.30374679 18.48511188 125.5886359 18.6057687 129.875 18.75 C129.875 19.08 129.875 19.41 129.875 19.75 C129.15054687 19.84796875 128.42609375 19.9459375 127.6796875 20.046875 C121.76460723 20.96174075 117.43300458 21.77635498 112.875 25.75 C112.19322584 27.07567199 111.52308564 28.40753688 110.875 29.75 C108.8203125 30.36328125 108.8203125 30.36328125 106.875 30.75 C107.52573486 30.77505615 108.17646973 30.8001123 108.84692383 30.82592773 C111.79398046 30.94193702 114.7407213 31.06464115 117.6875 31.1875 C118.71166016 31.22681641 119.73582031 31.26613281 120.79101562 31.30664062 C122.26538086 31.36948242 122.26538086 31.36948242 123.76953125 31.43359375 C124.67550049 31.47025146 125.58146973 31.50690918 126.51489258 31.54467773 C128.875 31.75 128.875 31.75 131.875 32.75 C131.875 39.35 131.875 45.95 131.875 52.75 C130.225 53.41 128.575 54.07 126.875 54.75 C125.80227438 57.19539786 125.80227438 57.19539786 125.875 59.75 C127.9035831 62.12158027 127.9035831 62.12158027 131.875 62.75 C131.875 85.19 131.875 107.63 131.875 130.75 C130.225 131.41 128.575 132.07 126.875 132.75 C125.80745166 134.68400917 125.80745166 134.68400917 125.875 136.75 C128.0135485 138.8885485 129.00775314 139.17655063 131.875 139.75 C131.93291844 142.87492251 131.96856746 145.99970766 132 149.125 C132.01675781 150.01445312 132.03351563 150.90390625 132.05078125 151.8203125 C132.05722656 152.67109375 132.06367188 153.521875 132.0703125 154.3984375 C132.08078613 155.18395996 132.09125977 155.96948242 132.10205078 156.77880859 C131.875 158.75 131.875 158.75 129.875 160.75 C119.32115288 161.77150513 108.28472394 160.33414007 97.73770142 159.58169556 C73.46973037 157.86691388 49.19442832 156.45775353 24.875 155.75 C23.48024445 155.70879028 23.48024445 155.70879028 22.05731201 155.66674805 C-11.91446475 154.71397197 -45.63050598 156.670566 -79.50683594 158.97094727 C-80.36636399 159.02882384 -81.22589205 159.08670042 -82.11146641 159.14633083 C-86.16323122 159.41923662 -90.21447071 159.6970822 -94.26499939 159.98777771 C-101.49738564 160.49384651 -108.7171357 160.86890881 -115.96801758 160.94335938 C-117.24880692 160.95669312 -118.52959625 160.97002686 -119.84919739 160.98376465 C-123.125 160.75 -123.125 160.75 -127.125 158.75 C-127.125 152.81 -127.125 146.87 -127.125 140.75 C-124.815 139.76 -122.505 138.77 -120.125 137.75 C-120.15593173 135.33414426 -120.15593173 135.33414426 -121.125 132.75 C-123.105 131.76 -125.085 130.77 -127.125 129.75 C-127.125 123.81 -127.125 117.87 -127.125 111.75 C-120.125 109.75 -120.125 109.75 -117.8125 109.375 C-115.9385982 108.87490632 -115.9385982 108.87490632 -114.9375 106.875 C-112.85255401 101.42206433 -112.51138332 96.55448214 -113.125 90.75 C-115.11468453 86.83924075 -116.49033646 85.17310902 -120.125 82.75 C-122.435 82.42 -124.745 82.09 -127.125 81.75 C-127.125 75.81 -127.125 69.87 -127.125 63.75 C-125.145 62.76 -123.165 61.77 -121.125 60.75 C-119.89424898 58.8327517 -119.89424898 58.8327517 -120.125 56.75 C-122.21176076 53.78460313 -123.43132515 53.67341871 -127.125 52.75 C-127.125 46.48 -127.125 40.21 -127.125 33.75 C-120.64491545 30.50995773 -114.21669548 30.60633284 -107.12890625 30.65234375 C-106.29536118 30.6537587 -105.4618161 30.65517365 -104.60301208 30.65663147 C-101.96447014 30.66218832 -99.32601591 30.6747326 -96.6875 30.6875 C-94.88867311 30.69252058 -93.08984487 30.69708251 -91.29101562 30.70117188 C-86.90228351 30.71128882 -82.51373889 30.73087232 -78.125 30.75 C-78.125 25.14 -78.125 19.53 -78.125 13.75 C-73.65051654 11.83236423 -69.96868765 10.30185496 -65.38671875 9.1015625 C-64.32807617 8.82094971 -63.26943359 8.54033691 -62.17871094 8.2512207 C-61.06786133 7.96206787 -59.95701172 7.67291504 -58.8125 7.375 C-56.47772002 6.75705635 -54.14308506 6.13856454 -51.80859375 5.51953125 C-50.66890137 5.21869629 -49.52920898 4.91786133 -48.35498047 4.60791016 C-44.01972756 3.45643028 -39.69578203 2.26696579 -35.375 1.0625 C-34.6634375 0.86591797 -33.951875 0.66933594 -33.21875 0.46679688 C-29.82866063 -0.47419055 -26.45292909 -1.44687123 -23.08984375 -2.48046875 C-21.84332031 -2.85816406 -20.59679687 -3.23585938 -19.3125 -3.625 C-18.23355469 -3.96273437 -17.15460938 -4.30046875 -16.04296875 -4.6484375 C-9.75133768 -5.94550736 -5.35165076 -2.95860235 0 0 Z " fill="#D01C29" transform="translate(197.125,96.25)"/>
<path d="M0 0 C6.27 0 12.54 0 19 0 C19.31453125 1.58425781 19.6290625 3.16851562 19.953125 4.80078125 C20.38524523 6.9713883 20.81755017 9.14195859 21.25 11.3125 C21.47526367 12.44502197 21.70052734 13.57754395 21.93261719 14.74438477 C23.15346544 20.85680521 24.4107126 26.95838944 25.73217773 33.04980469 C27.2498594 40.04788422 28.43235279 46.84764515 29 54 C29.33 54.66 29.66 55.32 30 56 C30.18175781 54.9584375 30.36351562 53.916875 30.55078125 52.84375 C35.39282715 25.18421359 35.39282715 25.18421359 38.30859375 12.92578125 C38.951052 10.20713024 39.5441103 7.48233302 40.125 4.75 C41 1 41 1 42 0 C44.53049402 -0.07313567 47.03304837 -0.09247527 49.5625 -0.0625 C50.62887695 -0.05573242 50.62887695 -0.05573242 51.71679688 -0.04882812 C53.47790013 -0.03700864 55.23896036 -0.01907263 57 0 C58.61174716 4.53075635 59.74011903 9.07201342 60.69140625 13.77734375 C60.841577 14.50691788 60.99174774 15.236492 61.14646912 15.98817444 C61.46162165 17.52325173 61.77499317 19.05869564 62.08666992 20.59448242 C62.56053929 22.92784536 63.04055273 25.25988046 63.52148438 27.59179688 C63.82848984 29.09107117 64.13514216 30.59041783 64.44140625 32.08984375 C64.58308731 32.77860092 64.72476837 33.46735809 64.8707428 34.17698669 C65.51073579 37.3421723 66.06130212 40.47777639 66.47241211 43.68188477 C66.95950378 46.74531044 67.72214993 49.18872986 69 52 C69.39324463 50.06350586 69.39324463 50.06350586 69.79443359 48.08789062 C70.77293893 43.27176801 71.75379969 38.45612756 72.73535156 33.640625 C73.15884031 31.56132759 73.58170083 29.48190212 74.00390625 27.40234375 C74.6129071 24.40330185 75.22420895 21.40473656 75.8359375 18.40625 C76.02247894 17.48509399 76.20902039 16.56393799 76.4012146 15.61486816 C76.58125031 14.73455933 76.76128601 13.85425049 76.94677734 12.94726562 C77.10222015 12.18337524 77.25766296 11.41948486 77.41781616 10.63244629 C78.20538285 7.07132543 79.11543154 3.53827383 80 0 C85.94 0 91.88 0 98 0 C95.30037024 14.0150992 92.16012076 27.81236881 88.51953125 41.61328125 C84.86269793 55.49313243 84.86269793 55.49313243 81.72265625 69.49609375 C80.80062637 73.96669266 79.80748548 78.42016955 78.8125 82.875 C78.214375 85.55625 77.61625 88.2375 77 91 C71.06 91 65.12 91 59 91 C58.41992188 87.90044922 58.41992188 87.90044922 57.828125 84.73828125 C54.91029652 69.15406688 51.98117385 53.57224927 49 38 C42.92424343 64.48290859 42.92424343 64.48290859 37 91 C31.06 91 25.12 91 19 91 C18.58041016 88.7415625 18.58041016 88.7415625 18.15234375 86.4375 C14.23120081 65.5686767 9.69163277 44.85014227 4.99609375 24.14453125 C4.83310791 23.42531998 4.67012207 22.7061087 4.50219727 21.96510315 C3.71639932 18.49968989 2.92765583 15.03499532 2.13330078 11.5715332 C1.85341309 10.34394287 1.57352539 9.11635254 1.28515625 7.8515625 C1.03644775 6.76697754 0.78773926 5.68239258 0.53149414 4.56494141 C0 2 0 2 0 0 Z " fill="#179DD5" transform="translate(693,140)"/>
<path d="M0 0 C43.92857143 0 43.92857143 0 51.5625 7.5 C56.75716202 14.28234803 56.76060081 20.60522067 56 29 C54.4832972 34.36174934 51.79939312 38.04652731 47 41 C46.01 41 45.02 41 44 41 C44 41.66 44 42.32 44 43 C44.845625 43.04125 45.69125 43.0825 46.5625 43.125 C51.22534418 44.31190579 53.97627774 46.26794986 57 50 C61.13179985 57.81234511 60.73707038 67.0386903 58.3125 75.359375 C55.98077971 80.73065924 51.95051884 84.93021202 47 88 C38 91 38 91 0 91 C0 60.97 0 30.94 0 0 Z " fill="#FAFAFA" transform="translate(371,140)"/>
<path d="M0 0 C6.93 0 13.86 0 21 0 C29.84633539 18.92333938 38.489945 37.92251405 47 57 C47.33 38.19 47.66 19.38 48 0 C53.94 0 59.88 0 66 0 C66 32.34 66 64.68 66 98 C59.73 98 53.46 98 47 98 C42.23125612 88.6317732 37.82029994 79.14319541 33.5 69.5625 C32.53268408 67.42274644 31.56468382 65.28330427 30.59631348 63.14402771 C30.00107619 61.8285019 29.40650926 60.51267239 28.81286621 59.19642639 C25.91411901 52.7789985 22.9513104 46.39450587 20 40 C19.67 59.14 19.34 78.28 19 98 C13.06 98 7.12 98 1 98 C0.67 65.66 0.34 33.32 0 0 Z " fill="#F29825" transform="translate(616,133)"/>
<path d="M0 0 C0.33 17.82 0.66 35.64 1 54 C8.28486788 42.15513536 8.28486788 42.15513536 15 30 C21.27 30 27.54 30 34 30 C33.05125 31.485 32.1025 32.97 31.125 34.5 C30.13350954 36.06124265 29.14210967 37.62254325 28.15185547 39.18457031 C27.34216727 40.46071306 26.53117805 41.73603081 25.71923828 43.01074219 C24.37107348 45.12949737 23.02883296 47.25191455 21.6875 49.375 C21.25518066 50.05240234 20.82286133 50.72980469 20.37744141 51.42773438 C17.05847131 56.44206309 17.05847131 56.44206309 15 62 C16.18514221 64.50688987 16.18514221 64.50688987 18.1875 66.8125 C21.45619231 71.13457947 23.35704366 74.88964163 25 80 C25.62512395 81.81974641 26.27172639 83.63222926 26.9375 85.4375 C27.23527344 86.28183594 27.53304687 87.12617188 27.83984375 87.99609375 C28.82569424 90.16308912 28.82569424 90.16308912 31 90.84375 C33.54939344 91.04292136 34.7875442 90.21328221 37 89 C40 89 40 89 41.6875 90.625 C43.4101852 93.74223988 43.49361752 95.47416058 43 99 C40.52758595 103.84973524 38.16710458 106.24513429 33 108 C27.31359016 108.73504759 22.82287417 108.32242443 18 105 C12.45178182 100.61982775 11.04602734 95.44546862 9.47705078 88.71118164 C8.27588799 83.64877832 6.47256209 79.38590232 3.953125 74.85546875 C3 73 3 73 3 71 C2.34 71 1.68 71 1 71 C0.67 78.26 0.34 85.52 0 93 C-5.61 93 -11.22 93 -17 93 C-17.33 63.3 -17.66 33.6 -18 3 C-5 0 -5 0 0 0 Z " fill="#F9F8F9" transform="translate(573,138)"/>
<path d="M0 0 C0.33 11.55 0.66 23.1 1 35 C3.64 33.02 6.28 31.04 9 29 C14.40863689 27.85484887 20.17050477 27.84376109 25.3515625 29.9609375 C28.87126299 32.31239697 31.34361966 35.13511255 33 39 C34.13550765 44.99494975 34.12933039 50.87744472 34.09765625 56.96484375 C34.0962413 57.99815323 34.09482635 59.03146271 34.09336853 60.09608459 C34.08779839 63.3765866 34.07525141 66.65701883 34.0625 69.9375 C34.05748114 72.16992089 34.05291891 74.40234285 34.04882812 76.63476562 C34.03783874 82.08987039 34.02059476 87.54492339 34 93 C28.06 93 22.12 93 16 93 C15.970271 90.92549561 15.970271 90.92549561 15.93994141 88.80908203 C15.86402716 83.69137972 15.77528837 78.57396704 15.68261719 73.45654297 C15.64426866 71.2391531 15.60942629 69.02169976 15.578125 66.80419922 C15.53260174 63.62183911 15.47458681 60.43991818 15.4140625 57.2578125 C15.40251129 56.26194122 15.39096008 55.26606995 15.37905884 54.24002075 C15.35918915 53.31921722 15.33931946 52.3984137 15.31884766 51.44970703 C15.30552399 50.6369632 15.29220032 49.82421936 15.2784729 48.98684692 C15.17100919 46.76959942 15.17100919 46.76959942 13 45 C9.62751384 44.33241215 9.62751384 44.33241215 6 45 C2.31883456 48.31682943 0.73445152 50.56943307 0.34057617 55.53662109 C0.29978559 57.28182206 0.28523548 59.02777703 0.29296875 60.7734375 C0.27784744 61.6971817 0.26272614 62.6209259 0.24714661 63.57266235 C0.20434897 66.50702476 0.19543927 69.44035689 0.1875 72.375 C0.16434953 74.37112099 0.13898305 76.36721759 0.11132812 78.36328125 C0.04440281 83.24274505 0.02336252 88.11935786 0 93 C-5.94 93 -11.88 93 -18 93 C-18 63.3 -18 33.6 -18 3 C-3 0 -3 0 0 0 Z " fill="#179AD3" transform="translate(952,138)"/>
<path d="M0 0 C6.27235592 5.18151141 9.91832211 11.96086306 11 20 C11.95782727 32.80463826 10.23272581 43.72848656 1.75 53.625 C-5.3854526 59.78743633 -11.93079079 60.79352115 -21.21875 60.37109375 C-28.55497924 59.65111257 -32.21704831 57.06226163 -37.3125 51.875 C-45.47996202 41.91037541 -45.16321501 29.34942127 -44 17 C-42.57756133 10.27355275 -39.23255427 4.50215196 -34 0 C-23.14885312 -6.99248758 -10.76267714 -7.07763008 0 0 Z " fill="#F9F9FA" transform="translate(538,172)"/>
<path d="M0 0 C6.64003819 6.22385346 9.44334332 14.69248058 9.953125 23.515625 C10.09446447 34.77566954 8.8089704 43.94518975 1.75 53 C-3.32882599 57.94517268 -9.09260228 60.34448983 -16.14868164 60.46875 C-16.8214917 60.4584375 -17.49430176 60.448125 -18.1875 60.4375 C-18.89189209 60.42847656 -19.59628418 60.41945313 -20.32202148 60.41015625 C-28.2463711 60.14579708 -32.54409093 58.00778871 -38 52.4375 C-45.72801149 42.78190669 -46.35857557 31.87287435 -45.25 20 C-43.906286 11.38246226 -39.68471796 5.02209335 -33.375 -0.875 C-23.36444714 -7.68217594 -9.9794919 -6.14122579 0 0 Z " fill="#FAFAFA" transform="translate(480.25,172)"/>
<path d="M0 0 C4.77397265 1.46680172 8.54397417 4.01442368 12.70703125 6.73046875 C21.87966293 12.57527491 31.2387557 17.97393414 40.77856445 23.19604492 C57.85245381 32.5974289 57.85245381 32.5974289 59.51953125 37.04296875 C56.52428497 45.03029216 43.24966229 49.65689702 36.14453125 53.66796875 C33.65833588 55.07330446 31.17267688 56.47958276 28.6875 57.88671875 C28.07059799 58.23558136 27.45369598 58.58444397 26.81809998 58.94387817 C22.86909615 61.18415679 18.96066092 63.48292617 15.0703125 65.82421875 C14.11608398 66.39188965 13.16185547 66.95956055 12.17871094 67.54443359 C10.40374202 68.60323726 8.63694551 69.67589984 6.87988281 70.76416016 C1.08712964 74.18887374 1.08712964 74.18887374 -2.609375 73.41015625 C-4.60546875 72.04296875 -4.60546875 72.04296875 -5.60546875 71.04296875 C-5.71547708 68.94245977 -5.75460091 66.83821675 -5.76660156 64.73486328 C-5.77156647 64.07629333 -5.77653137 63.41772339 -5.78164673 62.73919678 C-5.79630189 60.55138113 -5.80307611 58.363638 -5.80859375 56.17578125 C-5.81434276 54.65982052 -5.82010052 53.14385983 -5.8258667 51.62789917 C-5.83638646 48.44512593 -5.84222262 45.26237803 -5.84570312 42.07958984 C-5.85118778 37.99819641 -5.87521075 33.91713663 -5.90367508 29.83584785 C-5.92228619 26.70290139 -5.92750625 23.5700355 -5.929039 20.43703842 C-5.9320699 18.93231254 -5.94011316 17.42758822 -5.95322418 15.92291641 C-5.97025243 13.81830641 -5.96841286 11.71451395 -5.96191406 9.60986328 C-5.96555969 8.41152863 -5.96920532 7.21319397 -5.97296143 5.97854614 C-5.60546875 3.04296875 -5.60546875 3.04296875 -4.24603271 1.13522339 C-2.60546875 0.04296875 -2.60546875 0.04296875 0 0 Z " fill="#FEFAFB" transform="translate(186.60546875,152.95703125)"/>
<path d="M0 0 C1.34143066 -0.02767456 1.34143066 -0.02767456 2.70996094 -0.0559082 C8.74367424 0.00041389 13.48350606 0.83140948 18.375 4.5 C23.01091693 9.90596672 24.11576372 14.8493571 24.08203125 21.8125 C24.09715256 22.66682617 24.11227386 23.52115234 24.12785339 24.40136719 C24.17047087 27.1011854 24.17954287 29.79988005 24.1875 32.5 C24.21066461 34.34247725 24.23603401 36.18492817 24.26367188 38.02734375 C24.32626731 42.51832735 24.35880512 47.00861914 24.375 51.5 C26.025 51.83 27.675 52.16 29.375 52.5 C30.13357917 60.38922336 30.13357917 60.38922336 27.625 64.0625 C22.71418924 66.23458938 17.65098552 66.48697941 12.375 65.5 C10.09885866 63.62054657 8.69159989 62.13319977 7.375 59.5 C6.611875 60.11875 5.84875 60.7375 5.0625 61.375 C-1.34063981 66.43794776 -6.6247361 66.25404786 -14.625 65.5 C-18.67996659 64.06970269 -21.46291097 61.17555135 -23.625 57.5 C-25.96506915 52.32721556 -26.46953559 47.08427614 -25.625 41.5 C-23.12362929 35.46363431 -19.2080214 31.14418252 -13.25 28.41015625 C-6.73673557 25.81040155 -0.6130897 24.77033229 6.375 24.5 C6.08061192 19.6975741 6.08061192 19.6975741 3.875 15.5625 C0.04982931 13.93680246 -3.53318118 13.9456716 -7.625 14.5 C-11.38898568 16.2119187 -11.38898568 16.2119187 -13.625 19.5 C-15.275 19.17 -16.925 18.84 -18.625 18.5 C-19.16103819 17.10993485 -19.67817473 15.71257351 -20.1875 14.3125 C-20.47753906 13.53519531 -20.76757812 12.75789062 -21.06640625 11.95703125 C-21.72973332 9.03931989 -21.61697646 7.32078615 -20.625 4.5 C-15.17921002 -0.29944622 -6.83958035 0.08397604 0 0 Z " fill="#189CD4" transform="translate(810.625,166.5)"/>
<path d="M0 0 C6.5131251 3.53136463 13.06346809 6.82236534 19.875 9.75 C16.34316422 12.10455719 12.78612629 13.0579919 8.75 14.1875 C7.2145089 14.62774003 5.67934898 15.06913687 4.14453125 15.51171875 C3.40799316 15.7236084 2.67145508 15.93549805 1.91259766 16.15380859 C-4.7527321 18.06829404 -4.7527321 18.06829404 -11.125 20.75 C0.095 20.75 11.315 20.75 22.875 20.75 C22.875 21.08 22.875 21.41 22.875 21.75 C19.575 21.75 16.275 21.75 12.875 21.75 C12.215 23.07 11.555 24.39 10.875 25.75 C8.27894435 30.01642612 8.27894435 30.01642612 5.875 31.75 C2.31436312 32.53259992 -1.12374131 32.35868641 -4.75 32.1875 C-5.66523438 32.16880859 -6.58046875 32.15011719 -7.5234375 32.13085938 C-12.13887503 32.01547344 -16.74636852 31.7736594 -21.35571289 31.51635742 C-33.67294348 30.82998751 -45.97933628 30.45004454 -58.3125 30.1875 C-60.24935482 30.14414121 -62.18620384 30.10052261 -64.12304688 30.05664062 C-68.79030353 29.95144772 -73.45762323 29.8497152 -78.125 29.75 C-78.125 24.47 -78.125 19.19 -78.125 13.75 C-73.65051654 11.83236423 -69.96868765 10.30185496 -65.38671875 9.1015625 C-64.32807617 8.82094971 -63.26943359 8.54033691 -62.17871094 8.2512207 C-61.06786133 7.96206787 -59.95701172 7.67291504 -58.8125 7.375 C-56.47772002 6.75705635 -54.14308506 6.13856454 -51.80859375 5.51953125 C-50.66890137 5.21869629 -49.52920898 4.91786133 -48.35498047 4.60791016 C-44.01972756 3.45643028 -39.69578203 2.26696579 -35.375 1.0625 C-34.6634375 0.86591797 -33.951875 0.66933594 -33.21875 0.46679688 C-29.82866063 -0.47419055 -26.45292909 -1.44687123 -23.08984375 -2.48046875 C-21.22005859 -3.04701172 -21.22005859 -3.04701172 -19.3125 -3.625 C-18.23355469 -3.96273437 -17.15460938 -4.30046875 -16.04296875 -4.6484375 C-9.75133768 -5.94550736 -5.35165076 -2.95860235 0 0 Z " fill="#2A2828" transform="translate(197.125,96.25)"/>
<path d="M0 0 C0 6.6 0 13.2 0 20 C4.29 20 8.58 20 13 20 C13 24.29 13 28.58 13 33 C8.71 33 4.42 33 0 33 C0.09342811 37.80585058 0.19949659 42.61119094 0.31738281 47.41650391 C0.35570852 49.0518424 0.39055507 50.68726624 0.421875 52.32275391 C0.46744842 54.6712091 0.52545367 57.01907495 0.5859375 59.3671875 C0.59748871 60.10057343 0.60903992 60.83395935 0.62094116 61.58956909 C0.61868097 65.74977105 0.61868097 65.74977105 3 69 C6.44242296 68.62582359 9.63738948 67.84065263 13 67 C13 71.95 13 76.9 13 82 C8.29605452 83.88157819 4.91682037 84.33517906 0 84.3125 C-0.69867187 84.32861328 -1.39734375 84.34472656 -2.1171875 84.36132812 C-6.59883833 84.3655561 -9.49029185 83.830823 -13 81 C-14.328125 79.09765625 -14.328125 79.09765625 -15.25 77.0625 C-15.72179687 76.05896484 -15.72179687 76.05896484 -16.203125 75.03515625 C-18.09324893 70.20792797 -18.13126905 65.65192262 -18.09765625 60.515625 C-18.0962413 59.70003113 -18.09482635 58.88443726 -18.09336853 58.04412842 C-18.08778303 55.44604788 -18.07523321 52.84805437 -18.0625 50.25 C-18.05748312 48.48567833 -18.05292054 46.72135531 -18.04882812 44.95703125 C-18.03781835 40.63798744 -18.02056369 36.31900846 -18 32 C-20.31 32 -22.62 32 -25 32 C-25 28.04 -25 24.08 -25 20 C-22.36 20 -19.72 20 -17 20 C-17 15.05 -17 10.1 -17 5 C-14.54285453 4.16301614 -12.08441143 3.33027576 -9.625 2.5 C-8.92632813 2.26152344 -8.22765625 2.02304688 -7.5078125 1.77734375 C-2.2265625 0 -2.2265625 0 0 0 Z " fill="#199CD3" transform="translate(865,148)"/>
<path d="M0 0 C3.95328283 2.17234848 3.95328283 2.17234848 5.125 5.6875 C5.03882274 7.919769 4.88577759 10.14988486 4.6875 12.375 C4.58566406 13.55449219 4.48382812 14.73398438 4.37890625 15.94921875 C4.29511719 16.85285156 4.21132813 17.75648438 4.125 18.6875 C0.825 18.6875 -2.475 18.6875 -5.875 18.6875 C-6.184375 17.883125 -6.49375 17.07875 -6.8125 16.25 C-7.63835345 13.79669595 -7.63835345 13.79669595 -8.875 12.6875 C-14.4797709 12.47423597 -14.4797709 12.47423597 -19.875 13.6875 C-23.82040053 21.724427 -23.89088142 30.57166964 -21.625 39.0625 C-19.90265532 44.24282476 -19.90265532 44.24282476 -15.875 47.6875 C-9.63765047 48.72890472 -4.87482202 47.75296873 0.53125 44.5625 C2.125 43.6875 2.125 43.6875 4.125 43.6875 C4.785 47.9775 5.445 52.2675 6.125 56.6875 C-3.81562621 62.94047455 -11.08192173 63.8379184 -22.875 62.6875 C-29.91759615 60.75530054 -34.31390001 55.8936614 -37.875 49.6875 C-42.7460336 39.33416583 -43.92893142 26.57989308 -40.1875 15.6875 C-36.49370711 7.04299859 -32.52196042 2.60615997 -23.875 -1.3125 C-16.38400936 -3.80949688 -7.09671948 -3.41998203 0 0 Z " fill="#189BD4" transform="translate(921.875,169.3125)"/>
<path d="M0 0 C2.74712534 3.43230579 3.9164131 7.33122458 5.1875 11.5 C5.53167969 12.6034375 5.87585938 13.706875 6.23046875 14.84375 C6.93708927 17.74197019 7.06171512 20.04519307 7 23 C2.71057673 24.29919598 -1.58191371 25.5879648 -5.875 26.875 C-7.68097656 27.42220703 -7.68097656 27.42220703 -9.5234375 27.98046875 C-16.30404394 30.00728046 -23.02370531 31.79330046 -30 33 C-27.77174356 30.77174356 -26.34238372 30.30760631 -23.375 29.375 C-22.55773437 29.11460938 -21.74046875 28.85421875 -20.8984375 28.5859375 C-20.27195312 28.39257812 -19.64546875 28.19921875 -19 28 C-23.00492671 25.78240336 -27.0310955 23.6065344 -31.0625 21.4375 C-32.19623047 20.80908203 -33.32996094 20.18066406 -34.49804688 19.53320312 C-36.15610352 18.64858398 -36.15610352 18.64858398 -37.84765625 17.74609375 C-38.85836182 17.19622803 -39.86906738 16.6463623 -40.91040039 16.07983398 C-45.83921945 14.35718154 -50.29015528 15.38109329 -54.9375 17.5625 C-55.948125 18.036875 -56.95875 18.51125 -58 19 C-54.25029335 20.95889539 -50.500184 22.91701863 -46.75 24.875 C-45.68652344 25.43058594 -44.62304688 25.98617187 -43.52734375 26.55859375 C-42.50253906 27.09355469 -41.47773438 27.62851563 -40.421875 28.1796875 C-39.00793457 28.91807861 -39.00793457 28.91807861 -37.56542969 29.67138672 C-35.38588748 30.8001523 -33.19891731 31.90959039 -31 33 C-37.28546102 37.19030735 -45.45318663 39.6405551 -53 40 C-57.71692575 38.54230529 -61.25944333 36.13231547 -65.17431641 33.24462891 C-68.53745619 30.95186525 -72.2155184 29.26403914 -75.875 27.5 C-77.24764545 26.82342286 -78.62006437 26.1463858 -79.9921875 25.46875 C-80.98476562 24.9840625 -81.97734375 24.499375 -83 24 C-79.50570256 21.67046838 -76.06686256 20.80187446 -72.0625 19.75 C-70.40318526 19.30117847 -68.74434506 18.85059956 -67.0859375 18.3984375 C-66.23354492 18.16608398 -65.38115234 17.93373047 -64.50292969 17.69433594 C-60.71410111 16.64327971 -56.95054149 15.5144102 -53.1875 14.375 C-52.41083984 14.14119629 -51.63417969 13.90739258 -50.83398438 13.66650391 C-46.41477541 12.33554806 -41.99716607 10.99939771 -37.58105469 9.65820312 C-33.42249787 8.39585972 -29.26167649 7.141179 -25.09976196 5.88995361 C-23.41505488 5.38203492 -21.73110517 4.87159697 -20.04794312 4.35858154 C-17.66014008 3.63110249 -15.26986598 2.91233758 -12.87890625 2.1953125 C-11.79879776 1.86294586 -11.79879776 1.86294586 -10.6968689 1.52386475 C-7.07123138 0.44630362 -3.78940963 -0.48090289 0 0 Z " fill="#F1F1F1" transform="translate(322,52)"/>
<path d="M0 0 C5.39264192 5.53455355 5.23785028 9.82703785 5.3125 17.1875 C5.34150391 18.12142578 5.37050781 19.05535156 5.40039062 20.01757812 C5.45728873 26.23697909 4.69037017 29.94029025 1 35 C-2.219317 36.6096585 -5.51788881 36.59416977 -9 36 C-13.07848817 32.56548365 -14.31345368 28.14485944 -15 23 C-15.56135451 15.68269471 -15.40723846 9.57949496 -12 3 C-8.18536018 -1.34445091 -5.48008026 -1.69384299 0 0 Z " fill="#09090A" transform="translate(467,182)"/>
<path d="M0 0 C4.54662893 4.18768454 4.84448911 8.42210792 5.203125 14.3671875 C5.40018803 29.11407082 5.40018803 29.11407082 0.25 35 C-3.07535921 36.47793743 -5.40915785 36.51297745 -9 36 C-13.27272287 32.07371412 -14.78691913 27.36049326 -15.30078125 21.66796875 C-15.3471341 7.90117217 -15.3471341 7.90117217 -12 2 C-8.15335738 -1.63294025 -4.95996072 -1.44289766 0 0 Z " fill="#080809" transform="translate(526,182)"/>
<path d="M0 0 C6.3485631 3.73903103 12.80165926 7.10396162 19.4375 10.3125 C19.4375 10.9725 19.4375 11.6325 19.4375 12.3125 C16.87598317 13.12821218 14.31337372 13.94016131 11.75 14.75 C11.02876953 14.98009766 10.30753906 15.21019531 9.56445312 15.44726562 C8.15522444 15.89126918 6.74270395 16.32497607 5.3269043 16.74755859 C3.80609686 17.20228768 2.29560641 17.69144699 0.7890625 18.19140625 C-2.77041074 18.37470138 -4.58400406 16.78346321 -7.5 14.8125 C-8.64840095 14.07011777 -9.79954113 13.3319589 -10.953125 12.59765625 C-11.54544922 12.21883301 -12.13777344 11.84000977 -12.74804688 11.44970703 C-23.96403164 4.34198996 -23.96403164 4.34198996 -36.8671875 3.84765625 C-37.70636719 4.07775391 -37.70636719 4.07775391 -38.5625 4.3125 C-37.5625 2.3125 -37.5625 2.3125 -35.14160156 1.42700195 C-31.70138553 0.48160108 -28.26038707 -0.45789145 -24.8125 -1.375 C-23.61882812 -1.70822266 -22.42515625 -2.04144531 -21.1953125 -2.38476562 C-20.04289062 -2.69478516 -18.89046875 -3.00480469 -17.703125 -3.32421875 C-16.64641602 -3.60998779 -15.58970703 -3.89575684 -14.50097656 -4.19018555 C-8.61157687 -5.18692094 -4.99234355 -2.98177516 0 0 Z " fill="#F5F4F4" transform="translate(159.5625,105.6875)"/>
<path d="M0 0 C6.5131251 3.53136463 13.06346809 6.82236534 19.875 9.75 C16.23676081 12.17549279 12.71628952 13.23657039 8.5625 14.5 C7.81548828 14.74621094 7.06847656 14.99242188 6.29882812 15.24609375 C5.56470703 15.46910156 4.83058594 15.69210938 4.07421875 15.921875 C3.41252686 16.1290918 2.75083496 16.33630859 2.0690918 16.54980469 C-2.89633355 17.00286453 -7.29255136 14.25594759 -11.49609375 11.89453125 C-12.48287109 11.35505859 -13.46964844 10.81558594 -14.48632812 10.25976562 C-16.53909912 9.12715738 -18.58601733 7.98387675 -20.62695312 6.83007812 C-27.96626102 2.83783736 -27.96626102 2.83783736 -36.125 3.75 C-37.76981706 3.94621529 -39.41554359 4.13513546 -41.0625 4.3125 C-41.83464844 4.39628906 -42.60679687 4.48007813 -43.40234375 4.56640625 C-43.97082031 4.62699219 -44.53929687 4.68757813 -45.125 4.75 C-42.89450617 2.51950617 -41.90625301 2.27305253 -38.90625 1.56640625 C-38.06070557 1.36225098 -37.21516113 1.1580957 -36.34399414 0.94775391 C-35.44672607 0.73812012 -34.54945801 0.52848633 -33.625 0.3125 C-27.35873921 -1.18722249 -21.17724359 -2.70808172 -15.09765625 -4.8671875 C-9.45292919 -5.96259988 -4.74930927 -2.62560436 0 0 Z " fill="#F4F4F4" transform="translate(197.125,96.25)"/>
<path d="M0 0 C0.81726563 0.43441406 1.63453125 0.86882812 2.4765625 1.31640625 C3.3221875 1.77144531 4.1678125 2.22648437 5.0390625 2.6953125 C15.35344641 8.65342134 15.35344641 8.65342134 26.6640625 11.8203125 C22.73917656 14.43690313 18.81635961 15.31480853 14.2890625 16.5078125 C13.43828125 16.74564453 12.5875 16.98347656 11.7109375 17.22851562 C10.88335937 17.44830078 10.05578125 17.66808594 9.203125 17.89453125 C8.07704834 18.19750122 8.07704834 18.19750122 6.92822266 18.5065918 C1.83191182 19.21273364 -2.04662671 17.14444556 -6.51171875 14.87890625 C-7.66865234 14.29560547 -8.82558594 13.71230469 -10.01757812 13.11132812 C-11.22793137 12.49362044 -12.438217 11.87578023 -13.6484375 11.2578125 C-14.87797509 10.63551394 -16.10779017 10.01376332 -17.33789062 9.39257812 C-20.34001302 7.87385738 -23.33918903 6.3496023 -26.3359375 4.8203125 C-26.3359375 3.8303125 -26.3359375 2.8403125 -26.3359375 1.8203125 C-23.42237909 0.95403845 -20.50589422 0.10200244 -17.5859375 -0.7421875 C-16.7609375 -0.98904297 -15.9359375 -1.23589844 -15.0859375 -1.49023438 C-14.28671875 -1.71904297 -13.4875 -1.94785156 -12.6640625 -2.18359375 C-11.9309082 -2.39830322 -11.19775391 -2.6130127 -10.44238281 -2.83422852 C-6.41737798 -3.49433304 -3.49139011 -1.86976041 0 0 Z " fill="#F6F6F6" transform="translate(230.3359375,83.1796875)"/>
<path d="M0 0 C0.82564453 0.42796875 1.65128906 0.8559375 2.50195312 1.296875 C3.41912109 1.77640625 4.33628906 2.2559375 5.28125 2.75 C6.28800781 3.2759375 7.29476562 3.801875 8.33203125 4.34375 C10.44401042 5.44791667 12.55598958 6.55208333 14.66796875 7.65625 C15.67472656 8.1821875 16.68148437 8.708125 17.71875 9.25 C18.63591797 9.72953125 19.55308594 10.2090625 20.49804688 10.703125 C22.65618895 11.82178725 24.82228611 12.92005767 27 14 C20.71453898 18.19030735 12.54681337 20.6405551 5 21 C0.28307425 19.54230529 -3.25944333 17.13231547 -7.17431641 14.24462891 C-10.53745619 11.95186525 -14.2155184 10.26403914 -17.875 8.5 C-19.24764545 7.82342286 -20.62006437 7.1463858 -21.9921875 6.46875 C-22.98476562 5.9840625 -23.97734375 5.499375 -25 5 C-21.19300824 2.4620055 -17.43350005 1.48701029 -13.0625 0.25 C-12.25103516 0.00378906 -11.43957031 -0.24242188 -10.60351562 -0.49609375 C-9.81783203 -0.71910156 -9.03214844 -0.94210938 -8.22265625 -1.171875 C-7.50859619 -1.3790918 -6.79453613 -1.58630859 -6.05883789 -1.79980469 C-3.38810975 -2.0594984 -2.29508299 -1.35920548 0 0 Z " fill="#F6F6F6" transform="translate(264,71)"/>
<path d="M0 0 C14.65 0 14.65 0 19.9375 4.5 C22.52417072 7.99457501 22.6497133 11.34543909 22.42578125 15.59375 C21.79470493 19.16019965 20.40267635 21.33035961 18 24 C12.84232773 27.51008251 5.91305685 26.10950105 0 26 C0 17.42 0 8.84 0 0 Z " fill="#070708" transform="translate(390,190)"/>
<path d="M0 0 C0.72123047 0.38285156 1.44246094 0.76570313 2.18554688 1.16015625 C4.36846903 2.33090732 6.53112932 3.53107647 8.6875 4.75 C9.45497559 5.18119141 10.22245117 5.61238281 11.01318359 6.05664062 C11.7448877 6.48654297 12.4765918 6.91644531 13.23046875 7.359375 C13.89457764 7.74577148 14.55868652 8.13216797 15.24291992 8.53027344 C15.71963135 8.9327832 16.19634277 9.33529297 16.6875 9.75 C16.6875 10.74 16.6875 11.73 16.6875 12.75 C3.8175 12.75 -9.0525 12.75 -22.3125 12.75 C-22.3125 7.47 -22.3125 2.19 -22.3125 -3.25 C-20.9925 -3.58 -19.6725 -3.91 -18.3125 -4.25 C-17.508125 -4.45625 -16.70375 -4.6625 -15.875 -4.875 C-9.79504996 -5.76474879 -5.16898596 -2.80952799 0 0 Z " fill="#2F2A2B" transform="translate(141.3125,113.25)"/>
<path d="M0 0 C1.14210937 0.56976563 2.28421875 1.13953125 3.4609375 1.7265625 C4.34797363 2.17322266 4.34797363 2.17322266 5.25292969 2.62890625 C7.05371126 3.53464204 8.85858974 4.43178403 10.6640625 5.328125 C11.80617187 5.90046875 12.94828125 6.4728125 14.125 7.0625 C15.16785156 7.58505371 16.21070313 8.10760742 17.28515625 8.64599609 C19.74266571 9.9892445 21.88200833 11.41561669 24.0625 13.1640625 C21.48282203 14.03095428 18.89973873 14.88280039 16.3125 15.7265625 C15.58289063 15.97341797 14.85328125 16.22027344 14.1015625 16.47460938 C13.03808594 16.81782227 13.03808594 16.81782227 11.953125 17.16796875 C11.30375977 17.38267822 10.65439453 17.5973877 9.98535156 17.81860352 C7.67511809 18.23365943 6.26409373 17.94767581 4.0625 17.1640625 C3.31742188 16.5659375 2.57234375 15.9678125 1.8046875 15.3515625 C-1.52167171 12.69805658 -4.99028087 10.99301222 -8.8125 9.1640625 C-13.97084704 6.66777358 -18.98924009 4.05808396 -23.9375 1.1640625 C-23.9375 0.8340625 -23.9375 0.5040625 -23.9375 0.1640625 C-21.69126301 -0.53563432 -19.44033586 -1.22028793 -17.1875 -1.8984375 C-15.93453125 -2.28128906 -14.6815625 -2.66414063 -13.390625 -3.05859375 C-7.96791613 -4.27931667 -4.88842894 -2.43892723 0 0 Z " fill="#302D2E" transform="translate(209.9375,89.8359375)"/>
<path d="M0 0 C1.15693359 0.58587891 2.31386719 1.17175781 3.50585938 1.77539062 C4.60349609 2.34322266 5.70113281 2.91105469 6.83203125 3.49609375 C7.83596924 4.01228271 8.83990723 4.52847168 9.87426758 5.06030273 C12.1875 6.5625 12.1875 6.5625 13.1875 9.5625 C5.3716223 11.87831562 -2.06245705 13.20805499 -9.6640625 9.55078125 C-11.266866 8.67997706 -12.8581525 7.78765573 -14.4375 6.875 C-15.2315625 6.43994141 -16.025625 6.00488281 -16.84375 5.55664062 C-21.94383097 2.73487452 -26.90074343 -0.30116867 -31.8125 -3.4375 C-29.05731495 -4.82915327 -26.33283194 -6.1106397 -23.4375 -7.1875 C-22.34308594 -7.61289063 -22.34308594 -7.61289063 -21.2265625 -8.046875 C-14.17364254 -9.18812418 -6.03838066 -3.13037864 0 0 Z " fill="#393535" transform="translate(255.8125,83.4375)"/>
<path d="M0 0 C12.19050248 -0.49254555 12.19050248 -0.49254555 15.86328125 1.7421875 C18.74496655 4.78718586 18.90895138 6.69749816 19.12890625 10.75 C18.93162273 14.19349425 18.04135836 16.23428867 16 19 C10.48168296 23.03779296 7.56364414 22 0 22 C0 14.74 0 7.48 0 0 Z " fill="#080809" transform="translate(390,155)"/>
<path d="M0 0 C1.10085937 0.57427734 2.20171875 1.14855469 3.3359375 1.74023438 C5.02976563 2.64418945 5.02976563 2.64418945 6.7578125 3.56640625 C7.91023438 4.16517578 9.06265625 4.76394531 10.25 5.38085938 C18.74532313 9.85392751 18.74532313 9.85392751 19.8828125 12.12890625 C17.61332148 12.80045974 15.3424164 13.46630255 13.0703125 14.12890625 C11.80574219 14.50015625 10.54117188 14.87140625 9.23828125 15.25390625 C5.8828125 16.12890625 5.8828125 16.12890625 2.8828125 16.12890625 C2.8828125 15.46890625 2.8828125 14.80890625 2.8828125 14.12890625 C2.10550781 13.91234375 1.32820313 13.69578125 0.52734375 13.47265625 C-4.39872637 11.65639889 -8.84584083 9.17220182 -13.4296875 6.62890625 C-14.34814453 6.13003906 -15.26660156 5.63117188 -16.21289062 5.1171875 C-17.08494141 4.63636719 -17.95699219 4.15554687 -18.85546875 3.66015625 C-19.64993408 3.22251953 -20.44439941 2.78488281 -21.26293945 2.33398438 C-23.1171875 1.12890625 -23.1171875 1.12890625 -24.1171875 -0.87109375 C-22.43519658 -1.40945251 -20.7461915 -1.92591489 -19.0546875 -2.43359375 C-18.11496094 -2.72363281 -17.17523438 -3.01367188 -16.20703125 -3.3125 C-10.15855588 -4.40596647 -5.33748962 -2.7989066 0 0 Z " fill="#393535" transform="translate(176.1171875,101.87109375)"/>
<path d="M0 0 C1.01384766 0.52916016 2.02769531 1.05832031 3.07226562 1.60351562 C4.11447266 2.15845703 5.15667969 2.71339844 6.23046875 3.28515625 C7.29201172 3.83623047 8.35355469 4.38730469 9.44726562 4.95507812 C17.2852241 9.08216694 17.2852241 9.08216694 18.41796875 11.34765625 C17.70769531 11.54101562 16.99742187 11.734375 16.265625 11.93359375 C15.34652344 12.19398437 14.42742187 12.454375 13.48046875 12.72265625 C12.56394531 12.97789063 11.64742188 13.233125 10.703125 13.49609375 C8.25051788 14.11425729 8.25051788 14.11425729 7.41796875 16.34765625 C1.08210397 14.36853724 -4.53254006 11.42184829 -10.39453125 8.34765625 C-11.45607422 7.80109375 -12.51761719 7.25453125 -13.61132812 6.69140625 C-14.61873047 6.16546875 -15.62613281 5.63953125 -16.6640625 5.09765625 C-17.58421143 4.618125 -18.50436035 4.13859375 -19.45239258 3.64453125 C-21.58203125 2.34765625 -21.58203125 2.34765625 -22.58203125 0.34765625 C-20.88094989 -0.35759634 -19.17071628 -1.04079431 -17.45703125 -1.71484375 C-16.50570313 -2.09769531 -15.554375 -2.48054688 -14.57421875 -2.875 C-9.10563214 -4.29569025 -4.86321648 -2.54651236 0 0 Z " fill="#373334" transform="translate(285.58203125,69.65234375)"/>
<path d="M0 0 C0.81276398 0.00990463 1.62552795 0.01980927 2.46292114 0.03001404 C5.04227243 0.06899828 7.61726284 0.15677208 10.1953125 0.24609375 C11.95045907 0.28122906 13.70567281 0.3131642 15.4609375 0.34179688 C19.74905929 0.41870563 24.0339484 0.53936245 28.3203125 0.68359375 C28.3203125 1.01359375 28.3203125 1.34359375 28.3203125 1.68359375 C27.59585938 1.7815625 26.87140625 1.87953125 26.125 1.98046875 C20.20991973 2.8953345 15.87831708 3.70994873 11.3203125 7.68359375 C10.63853834 9.00926574 9.96839814 10.34113063 9.3203125 11.68359375 C6.05872309 12.85646432 2.89813024 12.7987867 -0.5390625 12.78125 C-1.65410156 12.77802734 -2.76914062 12.77480469 -3.91796875 12.77148438 C-5.07683594 12.76310547 -6.23570312 12.75472656 -7.4296875 12.74609375 C-8.60402344 12.74158203 -9.77835937 12.73707031 -10.98828125 12.73242188 C-13.88546822 12.72064469 -16.78255204 12.70419701 -19.6796875 12.68359375 C-18.9784375 12.00296875 -18.2771875 11.32234375 -17.5546875 10.62109375 C-16.00316926 9.10863718 -14.65727626 7.65237947 -13.39157104 5.88951111 C-9.44162549 0.4823826 -6.5325311 -0.30321851 0 0 Z " fill="#EEEEEE" transform="translate(298.6796875,114.31640625)"/>
<path d="M0 0 C1.175625 0.268125 2.35125 0.53625 3.5625 0.8125 C6.38138065 2.02498796 6.97102976 2.94011124 8.3359375 5.76171875 C9.73854891 9.88499839 11 13.62355642 11 18 C6.68806329 17.46494216 3.57012238 16.47839126 -0.1875 14.3125 C-1.12722656 13.77753906 -2.06695312 13.24257812 -3.03515625 12.69140625 C-4.01355469 12.13324219 -4.99195313 11.57507813 -6 11 C-8.95798039 9.42660617 -11.91870769 7.85869793 -14.8828125 6.296875 C-17 5 -17 5 -18 3 C-15.94237091 2.29805625 -13.87863969 1.61398303 -11.8125 0.9375 C-10.66394531 0.55464844 -9.51539063 0.17179687 -8.33203125 -0.22265625 C-4.95893095 -1.00958117 -3.26770508 -0.95585931 0 0 Z " fill="#2B2829" transform="translate(317,56)"/>
<path d="M0 0 C2.61376953 -0.34057617 2.61376953 -0.34057617 5.8828125 -0.29296875 C7.04941406 -0.28330078 8.21601563 -0.27363281 9.41796875 -0.26367188 C10.64128906 -0.23853516 11.86460937 -0.21339844 13.125 -0.1875 C14.35605469 -0.17396484 15.58710938 -0.16042969 16.85546875 -0.14648438 C19.90407843 -0.11103543 22.951825 -0.06162079 26 0 C25.20996582 0.62559814 24.41993164 1.25119629 23.60595703 1.89575195 C20.97936222 4.01666452 18.73056659 6.27412486 16.4296875 8.73046875 C13.61367077 11.23103005 10.47943933 11.17135217 6.89453125 11.31640625 C5.91162109 11.35830078 4.92871094 11.40019531 3.91601562 11.44335938 C2.37977539 11.50233398 2.37977539 11.50233398 0.8125 11.5625 C-0.22326172 11.60568359 -1.25902344 11.64886719 -2.32617188 11.69335938 C-4.8839819 11.79944366 -7.44188845 11.90150146 -10 12 C-8.1659523 7.84694007 -5.51156411 5.85314584 -2 3 C-1.34 2.01 -0.68 1.02 0 0 Z " fill="#F7F7F7" transform="translate(248,117)"/>
<path d="M0 0 C4.70907753 -0.0286012 9.41606597 -0.00444921 14.125 0.0390625 C13.53589844 0.33296875 12.94679687 0.626875 12.33984375 0.9296875 C5.80231503 3.98932067 5.80231503 3.98932067 1.046875 9.15625 C-0.64544156 11.25984669 -1.47745892 11.95403063 -4.14868164 12.52539062 C-6.850895 12.62933171 -9.48755947 12.56289314 -12.1875 12.4140625 C-13.11884766 12.38699219 -14.05019531 12.35992187 -15.00976562 12.33203125 C-17.30056872 12.261545 -19.58657563 12.16310496 -21.875 12.0390625 C-21.56433594 11.41797607 -21.25367188 10.79688965 -20.93359375 10.15698242 C-20.26675305 8.82283965 -19.60120467 7.4880494 -18.9375 6.15234375 C-17.34159452 3.44751865 -16.02229978 1.44847238 -12.9921875 0.3671875 C-8.6795964 -0.14371179 -4.3370629 0.03807345 0 0 Z " fill="#908A8A" transform="translate(224.875,116.9609375)"/>
<path d="M0 0 C-1.4388102 3.387199 -3.22119499 5.3594104 -6 7.75 C-6.70125 8.36359375 -7.4025 8.9771875 -8.125 9.609375 C-10 11 -10 11 -12 11 C-12 11.66 -12 12.32 -12 13 C-15.61867559 14.2062252 -18.92506251 14.10816918 -22.6875 14.0625 C-23.38939453 14.05798828 -24.09128906 14.05347656 -24.81445312 14.04882812 C-26.54300538 14.03706927 -28.27151365 14.01913454 -30 14 C-30 13.34 -30 12.68 -30 12 C-28.33779419 10.99260254 -26.66979326 9.99477045 -25 9 C-22.60395789 7.06435441 -20.31068054 5.03883577 -18 3 C-22.29 2.67 -26.58 2.34 -31 2 C-31 1.67 -31 1.34 -31 1 C-27.14593663 0.83088717 -23.29173507 0.66514962 -19.4375 0.5 C-18.35146484 0.45230469 -17.26542969 0.40460938 -16.14648438 0.35546875 C-10.75902904 0.12621533 -5.39236804 -0.06189232 0 0 Z " fill="#383637" transform="translate(290,115)"/>
<path d="M0 0 C2.3821875 0.0309375 2.3821875 0.0309375 4.8125 0.0625 C4.8125 4.3525 4.8125 8.6425 4.8125 13.0625 C-4.7575 12.7325 -14.3275 12.4025 -24.1875 12.0625 C-20.1875 10.0625 -20.1875 10.0625 -16.1875 10.0625 C-15.98125 9.32 -15.775 8.5775 -15.5625 7.8125 C-12.46300534 1.61351067 -6.48558031 -0.08422832 0 0 Z " fill="#343032" transform="translate(324.1875,115.9375)"/>
<path d="M0 0 C0.90514286 10.50971429 0.90514286 10.50971429 -1.16015625 13.91015625 C-3.4807008 15.94582577 -5.68619493 16.93431987 -8.6875 17.5625 C-11 17 -11 17 -12.8125 15.4375 C-14.48247845 12.00964949 -14.52903809 9.76939636 -14 6 C-9.74694956 0.71242378 -6.59765815 -0.14661463 0 0 Z " fill="#03080B" transform="translate(817,202)"/>
<path d="M0 0 C-2.12516868 4.25033735 -4.83328081 6.75488065 -8.4765625 9.66796875 C-10.12972374 10.94364001 -10.12972374 10.94364001 -11 13 C-15.62 13 -20.24 13 -25 13 C-23.61854878 7.47419511 -20.54282606 5.237885 -16 2 C-10.67781782 -0.22563982 -5.67225839 -0.23152075 0 0 Z " fill="#2C2728" transform="translate(248,117)"/>
<path d="M0 0 C1.32 0.33 2.64 0.66 4 1 C4 8.59 4 16.18 4 24 C2.68 24.33 1.36 24.66 0 25 C0 16.75 0 8.5 0 0 Z " fill="#F7D6D5" transform="translate(112,228)"/>
<path d="M0 0 C2.74712534 3.43230579 3.9164131 7.33122458 5.1875 11.5 C5.53167969 12.6034375 5.87585938 13.706875 6.23046875 14.84375 C6.9317078 17.71989799 7.15905366 20.06024953 7 23 C6.34 22.67 5.68 22.34 5 22 C4.40234375 20.14453125 4.40234375 20.14453125 3.9375 17.8125 C3.69193359 16.60207031 3.69193359 16.60207031 3.44140625 15.3671875 C2.92234815 12.58356617 2.43057701 9.79875057 2 7 C1.236875 6.87625 0.47375 6.7525 -0.3125 6.625 C-3 6 -3 6 -6 4 C-9.72676569 4.28667428 -13.03829539 5.01122451 -16.625 6.0625 C-19.63738655 6.89927404 -21.90750499 7.18742394 -25 7 C-21.34236304 4.56157536 -17.81363915 3.59196948 -13.625 2.375 C-12.86960937 2.14554688 -12.11421875 1.91609375 -11.3359375 1.6796875 C-3.24592821 -0.69639914 -3.24592821 -0.69639914 0 0 Z " fill="#C5C4C4" transform="translate(322,52)"/>
<path d="M0 0 C2 0.6875 2 0.6875 4 2.6875 C4.37271546 5.59468056 4.39278138 7.09832793 2.75 9.5625 C1 10.6875 1 10.6875 -1.0625 10.5 C-3 9.6875 -3 9.6875 -5 7.6875 C-4.75 4.125 -4.75 4.125 -4 0.6875 C-2 -0.3125 -2 -0.3125 0 0 Z " fill="#FDEFEE" transform="translate(101,187.3125)"/>
<path d="M0 0 C0.99 0 1.98 0 3 0 C3 7.59 3 15.18 3 23 C2.01 23 1.02 23 0 23 C0 15.41 0 7.82 0 0 Z " fill="#FBF5F4" transform="translate(294,230)"/>
<path d="M0 0 C0.99 0 1.98 0 3 0 C3 3.96 3 7.92 3 12 C1.35 12.33 -0.3 12.66 -2 13 C-2.05391993 11.20866022 -2.09275571 9.41686101 -2.125 7.625 C-2.14820312 6.62726563 -2.17140625 5.62953125 -2.1953125 4.6015625 C-2 2 -2 2 0 0 Z " fill="#EA4146" transform="translate(114,149)"/>
<path d="M0 0 C0.99 0 1.98 0 3 0 C3 6.6 3 13.2 3 20 C2.01 20 1.02 20 0 20 C0 13.4 0 6.8 0 0 Z " fill="#FDF9F8" transform="translate(294,166)"/>
<path d="M0 0 C0.99 0 1.98 0 3 0 C3 6.6 3 13.2 3 20 C2.01 20 1.02 20 0 20 C0 13.4 0 6.8 0 0 Z " fill="#FEEAE9" transform="translate(113,166)"/>
<path d="M0 0 C3.25696479 0.41755959 4.63443291 0.63443291 7 3 C6.46428571 6.53571429 6.46428571 6.53571429 5 8 C2.5625 8.1875 2.5625 8.1875 0 8 C-0.66 7.34 -1.32 6.68 -2 6 C-1.44444444 1.44444444 -1.44444444 1.44444444 0 0 Z " fill="#FBEBEA" transform="translate(305,188)"/>
<path d="M0 0 C1.39456452 0.00667256 2.78911118 0.01863093 4.18359375 0.03515625 C4.89451172 0.03966797 5.60542969 0.04417969 6.33789062 0.04882812 C8.09899388 0.06064761 9.86005411 0.07858362 11.62109375 0.09765625 C11.62109375 0.75765625 11.62109375 1.41765625 11.62109375 2.09765625 C7.00109375 2.09765625 2.38109375 2.09765625 -2.37890625 2.09765625 C-2.04890625 3.08765625 -1.71890625 4.07765625 -1.37890625 5.09765625 C-2.4273323 8.2429344 -3.8543719 11.15748287 -5.37890625 14.09765625 C-6.43019312 10.86235793 -6.297924 8.70043528 -5.50390625 5.41015625 C-5.32085938 4.62253906 -5.1378125 3.83492187 -4.94921875 3.0234375 C-3.97267106 -0.27408314 -3.69362312 0.10675211 0 0 Z " fill="#0E83B1" transform="translate(738.37890625,139.90234375)"/>
<path d="M0 0 C1.32 0.33 2.64 0.66 4 1 C4 5.29 4 9.58 4 14 C2.68 13.67 1.36 13.34 0 13 C0 8.71 0 4.42 0 0 Z " fill="#F8CBCA" transform="translate(112,191)"/>
<path d="M0 0 C1.32 0 2.64 0 4 0 C4 4.29 4 8.58 4 13 C2.68 13 1.36 13 0 13 C0 8.71 0 4.42 0 0 Z " fill="#FAD1CF" transform="translate(112,131)"/>
<path d="M0 0 C2.5 0.125 2.5 0.125 3.5 1.125 C3.625 4.125 3.625 4.125 3.5 7.125 C2.5 8.125 2.5 8.125 0 8.25 C-2.5 8.125 -2.5 8.125 -3.5 7.125 C-3.625 4.125 -3.625 4.125 -3.5 1.125 C-2.5 0.125 -2.5 0.125 0 0 Z " fill="#EEE3C3" transform="translate(129.5,114.875)"/>
<path d="M0 0 C0.99 0 1.98 0 3 0 C3 5.28 3 10.56 3 16 C2.01 16 1.02 16 0 16 C0 10.72 0 5.44 0 0 Z " fill="#FCF5F4" transform="translate(294,193)"/>
<path d="M0 0 C5.94 0 11.88 0 18 0 C18 0.66 18 1.32 18 2 C12.72 2 7.44 2 2 2 C1.67 3.65 1.34 5.3 1 7 C0.67 7 0.34 7 0 7 C0 4.69 0 2.38 0 0 Z " fill="#1088B6" transform="translate(773,140)"/>
<path d="M0 0 C0.99 0 1.98 0 3 0 C3 4.62 3 9.24 3 14 C2.01 14 1.02 14 0 14 C0 9.38 0 4.76 0 0 Z " fill="#FBEEED" transform="translate(294,146)"/>
<path d="M0 0 C3.3 0 6.6 0 10 0 C7.56627825 2.53107062 5.03538963 4.95128252 2.4375 7.3125 C1.56931641 8.11107422 1.56931641 8.11107422 0.68359375 8.92578125 C0.12800781 9.28027344 -0.42757812 9.63476562 -1 10 C-1.99 9.67 -2.98 9.34 -4 9 C-3.195625 8.4225 -2.39125 7.845 -1.5625 7.25 C0.97866739 5.01873107 1.65120368 4.25543229 2 1 C1.34 0.67 0.68 0.34 0 0 Z " fill="#A39E9D" transform="translate(224,118)"/>
<path d="M0 0 C0.83144531 0.05671875 1.66289063 0.1134375 2.51953125 0.171875 C4.55544876 0.3122831 6.59035843 0.46717665 8.625 0.625 C8.625 0.955 8.625 1.285 8.625 1.625 C0.65009872 2.95415021 -7.31686719 2.71301359 -15.375 2.625 C-15.375 2.295 -15.375 1.965 -15.375 1.625 C-10.03234751 -0.64000801 -5.64125682 -0.44986099 0 0 Z " fill="#DB2E39" transform="translate(119.375,252.375)"/>
<path d="M0 0 C0.99 0 1.98 0 3 0 C3 3.96 3 7.92 3 12 C2.01 12 1.02 12 0 12 C0 8.04 0 4.08 0 0 Z " fill="#FBD9D9" transform="translate(113,210)"/>
<path d="M0 0 C0.33 1.32 0.66 2.64 1 4 C-5.625 4.125 -5.625 4.125 -9 3 C-9 2.34 -9 1.68 -9 1 C-5.57367167 -0.61798838 -3.61944899 -1.34053666 0 0 Z " fill="#181718" transform="translate(167,123)"/>
<path d="M0 0 C2.05078125 0.03255208 4.1015625 0.06510417 6.15234375 0.09765625 C5.40984375 0.65453125 4.66734375 1.21140625 3.90234375 1.78515625 C1.2352638 4.02792803 -0.76321857 6.318406 -2.84765625 9.09765625 C-2.9453125 2.9453125 -2.9453125 2.9453125 -2.84765625 1.09765625 C-1.84765625 0.09765625 -1.84765625 0.09765625 0 0 Z " fill="#A8A7A7" transform="translate(309.84765625,116.90234375)"/>
<path d="M0 0 C-4.95 1.485 -4.95 1.485 -10 3 C-10 4.32 -10 5.64 -10 7 C-12.91517292 5.92598892 -14.77810176 5.22189824 -17 3 C-14.73194205 2.30190555 -12.46133393 1.61628983 -10.1875 0.9375 C-9.54490234 0.73833984 -8.90230469 0.53917969 -8.24023438 0.33398438 C-3.33984375 -1.11328125 -3.33984375 -1.11328125 0 0 Z " fill="#6A6666" transform="translate(203,87)"/>
<path d="M0 0 C0.99 0 1.98 0 3 0 C3 3.63 3 7.26 3 11 C2.01 11 1.02 11 0 11 C0 7.37 0 3.74 0 0 Z " fill="#F9E7E6" transform="translate(294,212)"/>
<path d="M0 0 C0.99 0 1.98 0 3 0 C3 3.63 3 7.26 3 11 C2.01 11 1.02 11 0 11 C0 7.37 0 3.74 0 0 Z " fill="#FCF3F0" transform="translate(294,131)"/>
<path d="M0 0 C0.99 0 1.98 0 3 0 C3 3.3 3 6.6 3 10 C2.01 10 1.02 10 0 10 C0 6.7 0 3.4 0 0 Z " fill="#FDEAE7" transform="translate(113,150)"/>
<path d="M0 0 C0.99 0 1.98 0 3 0 C3 6.27 3 12.54 3 19 C2.01 19 1.02 19 0 19 C0.33 18.34 0.66 17.68 1 17 C1.2322646 14.28737884 1.41936235 11.59226874 1.5625 8.875 C1.60568359 8.12089844 1.64886719 7.36679688 1.69335938 6.58984375 C1.7994832 4.72678112 1.90025001 2.86341476 2 1 C1.34 0.67 0.68 0.34 0 0 Z " fill="#A51626" transform="translate(326,236)"/>
<path d="M0 0 C6.27 0 12.54 0 19 0 C19 0.33 19 0.66 19 1 C13.72 1 8.44 1 3 1 C3 1.66 3 2.32 3 3 C2.01 3 1.02 3 0 3 C0 2.01 0 1.02 0 0 Z " fill="#E81825" transform="translate(113,127)"/>
<path d="M0 0 C0.33 0.99 0.66 1.98 1 3 C1.99 3.33 2.98 3.66 4 4 C3.67 6.64 3.34 9.28 3 12 C2.67 12 2.34 12 2 12 C1.855625 10.948125 1.71125 9.89625 1.5625 8.8125 C1.12473034 5.84539451 0.62195134 2.93205634 0 0 Z " fill="#041E2B" transform="translate(759,183)"/>
<path d="M0 0 C0 4.38968456 -2.12805101 5.76905739 -5 9 C-5.66 8.67 -6.32 8.34 -7 8 C-6.21366078 6.85050412 -5.42073742 5.70551011 -4.625 4.5625 C-4.18414063 3.92441406 -3.74328125 3.28632813 -3.2890625 2.62890625 C-2 1 -2 1 0 0 Z " fill="#1892C2" transform="translate(891,172)"/>
<path d="M0 0 C2.97 0.33 5.94 0.66 9 1 C8.01 1.33 7.02 1.66 6 2 C6 4.64 6 7.28 6 10 C5.67 10 5.34 10 5 10 C4.8046875 6.97265625 4.8046875 6.97265625 4.609375 3.9453125 C4.40828125 3.30335938 4.2071875 2.66140625 4 2 C2.68 1.34 1.36 0.68 0 0 Z " fill="#D44249" transform="translate(288,129)"/>
<path d="M0 0 C0 0.66 0 1.32 0 2 C-8.03571429 4.27678571 -8.03571429 4.27678571 -12 3 C-10.3789897 2.30314502 -8.75303934 1.61777139 -7.125 0.9375 C-6.22007812 0.55464844 -5.31515625 0.17179687 -4.3828125 -0.22265625 C-2 -1 -2 -1 0 0 Z " fill="#797575" transform="translate(269,91)"/>
</svg>
